<svg xmlns="http://www.w3.org/2000/svg" viewBox="0 0 240 240" width="240" height="240" fill="none">
<g stroke-linecap="round" stroke-linejoin="round">
<path d="M50 118a70 70 0 0 1 140 0v72q-17.5 20-35 0t-35 0-35 0-35 0z" fill="#ffffff" stroke="#b9c2d0" stroke-width="5"/>
<ellipse cx="72" cy="140" rx="10" ry="6" fill="#ffd2d8"/>
<ellipse cx="168" cy="140" rx="10" ry="6" fill="#ffd2d8"/>
<rect x="112" y="101" width="16" height="8" fill="#2f3a4a"/>
<rect x="76" y="98" width="38" height="28" rx="10" fill="#2f3a4a"/>
<rect x="126" y="98" width="38" height="28" rx="10" fill="#2f3a4a"/>
<rect x="70" y="91" width="100" height="9" rx="4.5" fill="#2f3a4a"/>
<path d="M84 120l12-14M134 120l12-14" stroke="#ffffff" stroke-width="5" opacity=".5"/>
<path d="M110 148q16 6 22-9" stroke="#2f3a4a" stroke-width="6"/>
<path d="M192 72l4 10 10 4-10 4-4 10-4-10-10-4 10-4z" fill="#0f9d76"/>
</g>
</svg>
